<svg xmlns="http://www.w3.org/2000/svg" viewBox="0 0 226.77 226.77"><defs><style>.cls-1{fill:none;stroke:#1d1d1b;stroke-miterlimit:10;}.cls-2{fill:#ff4713;}.cls-3{fill:#1d1d1b;}</style></defs><title>logoV2Plan de travail 1 copie 16</title><g id="Calque_1" data-name="Calque 1"><rect class="cls-1" x="-1464.8" y="-25.72" width="1715.16" height="464.1"/></g><g id="Calque_2" data-name="Calque 2"><path class="cls-2" d="M119.26,37.5V59.92A35.44,35.44,0,1,1,80,117.46l-15,15a56.7,56.7,0,1,0,54.26-95Z"/><path class="cls-3" d="M112.17,65V35.71L98,21.54V78.23h7.09a14.18,14.18,0,1,1-10,24.19l-10,10A28.35,28.35,0,1,0,112.17,65Z"/><path class="cls-3" d="M13.37,199.54A14.52,14.52,0,0,1,12,193.07c0-4.91,1.86-8.74,5-10.74a10,10,0,0,1,5.34-1.47,8.75,8.75,0,0,1,6.37,2.86l-1.47,1.76a6.25,6.25,0,0,0-4.87-2.29,7,7,0,0,0-6.66,4.58,13,13,0,0,0-1,5.22c0,4,1.25,7.09,3.54,8.7a6.48,6.48,0,0,0,4,1.22,7.28,7.28,0,0,0,5.59-2.72l1.46,1.64a8.81,8.81,0,0,1-7.15,3.4A9.39,9.39,0,0,1,13.37,199.54Z"/><path class="cls-3" d="M33.34,201a9.89,9.89,0,0,1-1.11-4.84c0-3.72,1.57-6.58,4-8a7.63,7.63,0,0,1,4-1.07,7.71,7.71,0,0,1,6.91,4.26,10.52,10.52,0,0,1,1.07,4.86c0,3.73-1.57,6.55-4,8a7.38,7.38,0,0,1-4,1.1A7.61,7.61,0,0,1,33.34,201Zm11.49-1.22a8.92,8.92,0,0,0,.68-3.62A7.41,7.41,0,0,0,43,190.06a4.71,4.71,0,0,0-2.76-.86,4.9,4.9,0,0,0-4.58,3.33,8.71,8.71,0,0,0-.68,3.61c0,4.16,2.15,6.91,5.26,6.91A5,5,0,0,0,44.83,199.76Z"/><path class="cls-3" d="M52.92,201.62V179.25h2.57v22.58c0,.83.36,1.22.83,1.22A4.41,4.41,0,0,0,57,203l.36,2a4.3,4.3,0,0,1-1.58.25C53.77,205.23,52.92,204,52.92,201.62Z"/><path class="cls-3" d="M61.86,201.62V179.25h2.58v22.58c0,.83.36,1.22.82,1.22a4.39,4.39,0,0,0,.65-.07l.36,2a4.3,4.3,0,0,1-1.58.25C62.72,205.23,61.86,204,61.86,201.62Z"/><path class="cls-3" d="M84,196.72H72c.25,4,2.75,6.4,6.05,6.4a7.81,7.81,0,0,0,4.4-1.39l1,1.72a10,10,0,0,1-5.69,1.78A7.79,7.79,0,0,1,70.56,201a10.08,10.08,0,0,1-1.11-4.84,9.18,9.18,0,0,1,4-8A6.88,6.88,0,0,1,77.22,187c4.29,0,6.84,3.08,6.84,8.12A10.1,10.1,0,0,1,84,196.72Zm-2.22-1.9c0-3.69-1.65-5.69-4.48-5.69-2.57,0-4.83,2-5.22,5.69Z"/><path class="cls-3" d="M88.14,201a10.24,10.24,0,0,1-1.08-4.87c0-3.72,1.61-6.58,4.15-8A8.2,8.2,0,0,1,95.33,187a7.12,7.12,0,0,1,5,2.07L99,190.81a5.22,5.22,0,0,0-3.58-1.61,5.32,5.32,0,0,0-4.91,3.33,8.26,8.26,0,0,0-.75,3.61c0,4.16,2.26,6.91,5.59,6.91a6.28,6.28,0,0,0,4.22-1.79l1.14,1.76a8.47,8.47,0,0,1-5.58,2.21A7.61,7.61,0,0,1,88.14,201Z"/><path class="cls-3" d="M104.78,199.58v-10h-2.61v-2l2.72-.18.32-4.91h2.18v4.91h4.76v2.14h-4.76v10.06c0,2.29.75,3.44,2.76,3.44a5.83,5.83,0,0,0,2-.47l.54,2a10.41,10.41,0,0,1-3.11.64C106.14,205.23,104.78,203.19,104.78,199.58Z"/><path class="cls-3" d="M115.7,181.9a1.79,1.79,0,1,1,1.79,1.82A1.71,1.71,0,0,1,115.7,181.9Zm.46,5.55h2.58v17.36h-2.58Z"/><path class="cls-3" d="M127.83,184.48v3h3.76v2.14h-3.76v15.22h-2.61V189.59h-2.37v-2l2.37-.18v-3c0-3.58,1.64-5.62,4.9-5.62a7.14,7.14,0,0,1,2.79.57l-.57,2a5,5,0,0,0-2-.43C128.65,181,127.83,182.15,127.83,184.48Z"/><path class="cls-3" d="M145,179.19h8.58c6.23,0,9.32,2.12,9.32,6.35a5.89,5.89,0,0,1-3.44,5.52v.16a5.83,5.83,0,0,1,4.73,6c0,5-4,7.52-9.9,7.52H145Zm8.27,10.34c3,0,4.38-1.17,4.38-3.21s-1.37-3-4.34-3h-2.94v6.19Zm.55,11.08c3.4,0,5.13-1.25,5.13-3.72s-1.69-3.36-5.13-3.36h-3.45v7.08Z"/><path class="cls-3" d="M167.22,199.44c0-4.11,3.33-6.31,11.05-7.13-.08-2.07-1.14-3.13-3.21-3.13a10.84,10.84,0,0,0-5.21,1.8l-1.92-3.52a15.42,15.42,0,0,1,8.14-2.55c5,0,7.56,2.9,7.56,8.66v11.2h-4.38l-.39-2h-.12a8.77,8.77,0,0,1-5.76,2.5A5.54,5.54,0,0,1,167.22,199.44Zm11.05-.16v-3.72a11.82,11.82,0,0,0-4.55,1.29,2.59,2.59,0,0,0-1.37,2.16c0,1.37.86,2.08,2.39,2.08C176,201.09,177,200.5,178.27,199.28Z"/><path class="cls-3" d="M188.7,185.38H193l.39,2.55h.16c1.88-1.92,3.57-3,5.87-3a5.31,5.31,0,0,1,5.37,3.33c2-2.08,3.8-3.33,6.11-3.33,4.07,0,6,2.82,6,7.79v12.07h-5.32v-11.4c0-2.82-.75-3.88-2.59-3.88-1.06,0-2.23.67-3.56,2v13.24h-5.33v-11.4c0-2.82-.74-3.88-2.58-3.88-1.06,0-2.24.67-3.57,2v13.24H188.7Z"/></g></svg>