<?xml version="1.0" encoding="utf-8"?>
<!-- Generator: Adobe Illustrator 19.0.0, SVG Export Plug-In . SVG Version: 6.00 Build 0)  -->
<svg version="1.1" id="Layer_1" xmlns="http://www.w3.org/2000/svg" xmlns:xlink="http://www.w3.org/1999/xlink" x="0px" y="0px"
	 width="150px" height="20px" viewBox="0 0 150 20" style="enable-background:new 0 0 150 20;" xml:space="preserve">
<style type="text/css">
	.st0{fill:#2E2A25;}
</style>
<g id="XMLID_64_">
	<path id="XMLID_93_" class="st0" d="M1,15.4c-0.6-1.4-1-2.9-1-4.8C0,7,1.4,4.2,3.6,2.7C4.7,2,6,1.6,7.5,1.6c1.9,0,3.5,0.9,4.6,2.1
		l-0.8,0.9c-1-1.2-2.3-1.8-3.8-1.8c-2.4,0-4.3,1.3-5.3,3.6c-0.5,1.2-0.7,2.5-0.7,4.1c0,3.2,1,5.6,2.8,6.9c0.9,0.6,1.9,1,3.2,1
		c1.7,0,3.1-0.7,4.3-2.1l0.8,0.9c-1.4,1.6-3,2.5-5.2,2.5C4.5,19.7,2.2,18.2,1,15.4z"/>
	<path id="XMLID_90_" class="st0" d="M15.7,16.6c-0.5-1-0.8-2.2-0.8-3.6c0-2.8,1.1-4.9,2.9-5.9c0.9-0.5,1.8-0.8,2.9-0.8
		c2.1,0,4,1.1,5,3.1c0.5,1,0.8,2.2,0.8,3.6c0,2.7-1.1,4.8-2.9,5.9c-0.9,0.6-1.9,0.8-2.9,0.8C18.6,19.7,16.8,18.6,15.7,16.6z
		 M24.5,15.9c0.4-0.8,0.6-1.8,0.6-2.9c0-2.1-0.8-3.9-2.1-4.9c-0.7-0.5-1.4-0.7-2.3-0.7c-1.7,0-3,1-3.8,2.7c-0.4,0.8-0.6,1.8-0.6,2.9
		c0,2.1,0.8,3.9,2.1,4.8c0.7,0.5,1.4,0.7,2.2,0.7C22.4,18.5,23.7,17.6,24.5,15.9z"/>
	<path id="XMLID_88_" class="st0" d="M30.2,17.5V0.4h1.4v17.3c0,0.6,0.2,0.8,0.6,0.8c0.1,0,0.3,0,0.5-0.1l0.2,1.1
		c-0.1,0-0.2,0.1-0.3,0.1c-0.2,0-0.4,0.1-0.6,0.1C30.7,19.7,30.2,19,30.2,17.5z"/>
	<path id="XMLID_86_" class="st0" d="M36.5,17.5V0.4h1.4v17.3c0,0.6,0.2,0.8,0.6,0.8c0.1,0,0.3,0,0.5-0.1l0.2,1.1
		c-0.1,0-0.2,0.1-0.3,0.1c-0.2,0-0.4,0.1-0.6,0.1C37.1,19.7,36.5,19,36.5,17.5z"/>
	<path id="XMLID_83_" class="st0" d="M52.3,13.3h-9.1c0,2.2,1,3.8,2.4,4.7c0.7,0.4,1.5,0.6,2.4,0.6c1.2,0,2.3-0.4,3.4-1.1l0.6,1
		c-1.2,0.8-2.4,1.3-4.1,1.3c-2.2,0-4.1-1.1-5.1-3.1c-0.5-1-0.8-2.2-0.8-3.6c0-2.7,1.1-4.8,2.9-5.9c0.8-0.6,1.7-0.8,2.7-0.8
		c3.1,0,4.9,2.2,4.9,5.9C52.4,12.6,52.4,12.9,52.3,13.3z M51.1,12.2c0-3.1-1.4-4.7-3.7-4.7c-1.3,0-2.6,0.7-3.4,2.1
		c-0.4,0.7-0.7,1.6-0.8,2.6L51.1,12.2L51.1,12.2z"/>
	<path id="XMLID_81_" class="st0" d="M55.5,16.6c-0.5-1-0.8-2.2-0.8-3.6c0-2.8,1.2-4.9,3-5.9c0.9-0.5,1.9-0.8,2.9-0.8
		c1.6,0,2.7,0.6,3.7,1.5l-0.8,1c-0.9-0.8-1.8-1.3-2.9-1.3c-1.7,0-3.1,1-3.9,2.7c-0.4,0.8-0.6,1.8-0.6,2.9c0,2.1,0.8,3.9,2.1,4.8
		c0.7,0.5,1.5,0.7,2.3,0.7c1.2,0,2.3-0.5,3.3-1.4l0.7,1c-1.3,1.1-2.7,1.7-4.1,1.7C58.3,19.7,56.5,18.7,55.5,16.6z"/>
	<path id="XMLID_79_" class="st0" d="M67.7,15.8v-8h-2V6.7l2-0.1l0.2-3.7H69v3.7h3.7v1.2H69v8.1c0,1.8,0.6,2.7,2.1,2.7
		c0.4,0,1.1-0.2,1.6-0.4l0.3,1.1c-0.9,0.3-1.6,0.5-2.1,0.5C68.6,19.7,67.7,18.3,67.7,15.8z"/>
	<path id="XMLID_76_" class="st0" d="M75.5,2.5c0-0.6,0.5-1.1,1.1-1.1s1.1,0.5,1.1,1.1c0,0.7-0.5,1.2-1.1,1.2
		C75.9,3.7,75.5,3.2,75.5,2.5z M75.8,6.7h1.4v12.7h-1.4V6.7z"/>
	<path id="XMLID_74_" class="st0" d="M83.6,4v2.6h2.9v1.2h-2.9v11.6h-1.4V7.8h-1.8V6.7l1.8-0.1V3.9c0-2.5,1.1-3.9,3.3-3.9
		c0.7,0,1.3,0.1,1.9,0.4l-0.3,1.1c-0.5-0.2-1-0.3-1.5-0.3C84.2,1.2,83.6,2.2,83.6,4z"/>
	<path id="XMLID_70_" class="st0" d="M93.9,18.9c0-0.2,0-0.4,0.1-0.5c1.1-0.1,1.8-0.2,1.9-0.5s0.2-0.6,0.2-1s0-1,0-1.7V4.5
		c0-0.5,0-0.9,0-1.2c0-0.3,0-0.5-0.1-0.8c0-0.3-0.1-0.5-0.2-0.7c0,0,0-0.1-0.1-0.1c0,0-0.1-0.1-0.2-0.1s-0.1,0-0.2-0.1
		c-0.1,0-0.2,0-0.3-0.1c-0.1,0-0.2,0-0.3,0c-0.1,0-0.2,0-0.3,0c-0.1,0-0.2,0-0.2,0c-0.1,0-0.1,0-0.2,0s-0.1,0-0.2,0
		c-0.1-0.1-0.1-0.3-0.1-0.5l0,0c0-0.3,0-0.4,0.1-0.5c0.9,0.1,2.3,0.1,4.1,0.1c0.4,0,1.1,0,2.1,0s1.8,0,2.4,0c0.5,0,1.1,0.1,1.6,0.1
		c0.5,0.1,1,0.3,1.5,0.5s0.9,0.5,1.3,0.9c0.4,0.3,0.7,0.8,0.9,1.3c0.2,0.5,0.3,1.1,0.3,1.8c0,0.4-0.1,0.9-0.2,1.3
		c-0.2,0.4-0.4,0.8-0.6,1c-0.2,0.3-0.5,0.5-0.8,0.8c-0.3,0.2-0.5,0.4-0.8,0.5c-0.2,0.1-0.4,0.2-0.6,0.3c-0.1,0-0.2,0.1-0.2,0.1l0,0
		c0.3,0,0.7,0.1,1.1,0.3c0.4,0.1,0.8,0.4,1.3,0.6c0.4,0.3,0.8,0.6,1.2,1c0.4,0.4,0.7,0.8,0.9,1.3c0.2,0.5,0.3,1.1,0.3,1.6
		c0,0.9-0.3,1.8-0.8,2.6c-0.6,0.8-1.3,1.5-2.2,2.1c-0.4,0.2-0.9,0.4-1.4,0.6c-0.5,0.1-1,0.2-1.5,0.3c-0.5,0-1,0.1-1.6,0.1
		c-0.3,0-0.6,0-0.8,0c-0.3,0-0.5,0-0.8,0H94C93.9,19.4,93.9,19.2,93.9,18.9z M100.1,8.6h1.5c0.8,0,1.4-0.3,1.8-0.9
		c0.5-0.6,0.7-1.4,0.7-2.5c0-2.6-0.8-3.8-2.4-3.8c-0.2,0-0.4,0-0.5,0s-0.3,0-0.4,0s-0.3,0.1-0.3,0.1c-0.1,0-0.2,0.1-0.2,0.2
		c-0.1,0.2-0.1,0.8-0.1,1.8L100.1,8.6L100.1,8.6z M100.1,16.2c0,0.9,0.1,1.4,0.2,1.7c0.2,0.2,0.8,0.3,1.8,0.3c0.3,0,0.6,0,0.8-0.1
		c0.3-0.1,0.5-0.2,0.8-0.4s0.5-0.4,0.7-0.7s0.4-0.7,0.5-1.1c0.1-0.5,0.2-1,0.2-1.5s0-0.9-0.1-1.3c-0.1-0.4-0.2-0.8-0.4-1.2
		c-0.2-0.4-0.4-0.7-0.7-1c-0.3-0.3-0.6-0.5-1-0.7s-0.9-0.3-1.4-0.3H100L100.1,16.2L100.1,16.2z"/>
	<path id="XMLID_67_" class="st0" d="M111.7,16.1c0-0.5,0.2-1,0.5-1.5c0.3-0.4,0.7-0.7,1.1-0.9c0.3-0.1,0.8-0.3,1.5-0.5
		c0.7-0.3,1.4-0.5,2.2-0.8c0.8-0.3,1.4-0.5,1.7-0.7v-0.6v-0.7c0-0.8-0.2-1.4-0.5-2s-0.7-0.9-1.2-0.9c-0.1,0-0.2,0-0.3,0
		c-0.1,0-0.2,0.1-0.3,0.1c-0.1,0-0.2,0.1-0.2,0.1c-0.1,0.1-0.1,0.1-0.2,0.2c-0.1,0.1-0.1,0.2-0.2,0.2c0,0.1-0.1,0.2-0.1,0.3
		s-0.1,0.2-0.1,0.3s-0.1,0.2-0.1,0.4c0,0.1-0.1,0.3-0.1,0.4c0,0.1-0.1,0.2-0.1,0.4c-0.1,0.4-0.2,0.7-0.5,0.9s-0.6,0.4-1.1,0.4
		c-0.4,0-0.8-0.1-1.1-0.4c-0.3-0.3-0.5-0.6-0.5-1c0-0.3,0.1-0.7,0.4-1.2c0.1-0.1,0.4-0.3,0.7-0.5c0.3-0.2,0.8-0.5,1.3-0.7
		c0.5-0.3,1.1-0.5,1.8-0.7c0.7-0.2,1.3-0.3,1.9-0.3c0.8,0,1.5,0.2,2.2,0.6s1.2,0.9,1.6,1.6c0.4,0.7,0.6,1.4,0.6,2.3v5.4
		c0,0.3,0,0.5,0.1,0.7s0.1,0.3,0.2,0.4c0.1,0.1,0.2,0.1,0.3,0.1c0.1,0,0.2,0,0.3,0c0.1,0,0.2-0.1,0.2-0.1c0.1,0,0.1-0.1,0.2-0.1
		l0.1-0.1c0.1,0,0.1,0.1,0.1,0.2c0,0.1,0.1,0.2,0.1,0.3c0,0.2,0,0.3-0.1,0.4c-0.2,0.2-0.4,0.4-0.7,0.6c-0.3,0.2-0.6,0.4-1.1,0.6
		c-0.5,0.2-0.9,0.3-1.2,0.3c-0.5,0-0.9-0.1-1.3-0.4c-0.4-0.3-0.7-0.6-0.9-1c-0.2,0.2-0.7,0.5-1.5,0.9s-1.4,0.6-1.8,0.6
		c-0.5,0-1.1-0.1-1.6-0.3s-0.9-0.5-1.2-0.8c-0.3-0.3-0.6-0.7-0.8-1.1C111.8,17,111.7,16.5,111.7,16.1z M115.8,15.8
		c0,0.3,0.1,0.6,0.2,0.8s0.3,0.4,0.4,0.6c0.2,0.1,0.4,0.2,0.6,0.3s0.4,0.1,0.6,0.1c0.3,0,0.6-0.1,0.8-0.2c0.2-0.1,0.3-0.3,0.3-0.4
		v-4.1c-0.1,0-0.3,0.2-0.8,0.4s-0.9,0.4-1.1,0.6c-0.4,0.2-0.6,0.5-0.8,0.9C115.8,15.1,115.8,15.4,115.8,15.8
		C115.8,15.7,115.8,15.8,115.8,15.8z"/>
	<path id="XMLID_65_" class="st0" d="M125.3,19c0-0.2,0-0.4,0.1-0.5c1.1-0.1,1.8-0.3,1.9-0.5c0.1-0.3,0.2-0.6,0.2-1s0-1,0-1.7V12
		c0-0.2,0-0.4,0-0.7s0-0.6-0.1-1c0-0.4-0.1-0.6-0.2-0.8s-0.4-0.3-0.8-0.4C126,9,125.6,9,125.4,9c-0.1,0-0.1-0.2-0.1-0.5
		s0-0.5,0.1-0.5c1-0.1,2-0.3,3.1-0.6c1.1-0.3,1.9-0.6,2.6-0.9c0.1,0,0.2,0.1,0.3,0.2s0.2,0.2,0.2,0.3s0,0.2-0.1,0.4
		c0,0.2-0.1,0.4-0.1,0.6s-0.1,0.4-0.1,0.5c0,0.2,0,0.2,0,0.2c0,0.1,0,0.2,0,0.2s0.1-0.1,0.2-0.2c0.4-0.6,1.1-1.1,1.9-1.5
		c0.8-0.4,1.5-0.7,2.2-0.7c0.9,0,1.7,0.2,2.2,0.6c0.5,0.4,1,1,1.3,1.9c0.7-0.7,1.5-1.2,2.4-1.7s1.7-0.8,2.4-0.8c0.6,0,1,0.1,1.4,0.2
		s0.8,0.3,1,0.6c0.3,0.3,0.5,0.6,0.7,0.9c0.2,0.4,0.3,0.8,0.4,1.3c0.1,0.5,0.2,1.1,0.2,1.7s0.1,1.3,0.1,2.1v1.9c0,0.3,0,0.5,0,0.6
		s0,0.3,0,0.5s0,0.4,0,0.5s0,0.3,0,0.4c0,0.1,0,0.3,0.1,0.4c0,0.1,0.1,0.2,0.1,0.3c0.1,0.3,0.7,0.4,1.9,0.5c0.1,0.1,0.1,0.3,0.1,0.5
		l0,0c0,0.3,0,0.4-0.1,0.5c-1.3-0.1-2.6-0.2-4-0.2c-1.1,0-2.3,0.1-3.6,0.2c-0.1-0.1-0.1-0.3-0.1-0.5c0-0.3,0-0.4,0.1-0.5
		c0.9-0.1,1.4-0.2,1.5-0.5s0.2-0.6,0.2-1s0-1,0-1.7v-2.3c0-0.6,0-1.1-0.1-1.5c-0.1-0.5-0.2-0.9-0.3-1.3s-0.3-0.7-0.6-0.9
		s-0.6-0.3-0.9-0.3c-0.4,0-0.8,0.1-1.2,0.3s-0.8,0.4-1.1,0.7s-0.4,0.5-0.4,0.7v0.2c0.1,1.1,0.1,2,0.1,2.7v1.9c0,0.3,0,0.6,0,0.7
		c0,0.2,0,0.4,0,0.6c0,0.2,0,0.4,0,0.6c0,0.1,0,0.3,0.1,0.4c0,0.2,0.1,0.3,0.1,0.4c0.1,0.3,0.7,0.4,1.8,0.5c0.1,0.1,0.1,0.3,0.1,0.5
		c0,0.3,0,0.4-0.1,0.5c-1.3-0.1-2.6-0.2-3.9-0.2c-1.1,0-2.4,0.1-3.7,0.2c-0.1-0.1-0.1-0.3-0.1-0.5c0-0.3,0-0.4,0.1-0.5
		c0.9-0.1,1.5-0.2,1.6-0.5s0.2-0.6,0.2-1s0-1,0-1.7v-2.3c0-0.6,0-1.1-0.1-1.5c-0.1-0.5-0.2-0.9-0.3-1.3s-0.3-0.7-0.6-0.9
		s-0.6-0.3-0.9-0.3c-0.4,0-0.8,0.1-1.2,0.3s-0.7,0.4-1,0.7s-0.4,0.5-0.4,0.7v4.8c0,0.5,0,0.8,0,1.1s0,0.5,0.1,0.9
		c0,0.3,0.1,0.6,0.2,0.8c0.1,0.3,0.7,0.4,1.7,0.5c0.1,0.1,0.1,0.3,0.1,0.5c0,0.3,0,0.4-0.1,0.5c-1.3-0.1-2.6-0.2-3.8-0.2
		c-1.3,0-2.7,0.1-4,0.2C125.3,19.4,125.3,19.3,125.3,19z"/>
</g>
</svg>
