<?xml version="1.0" encoding="utf-8"?>
<!-- Generator: Adobe Illustrator 19.0.0, SVG Export Plug-In . SVG Version: 6.00 Build 0)  -->
<svg version="1.1" id="Layer_1" xmlns="http://www.w3.org/2000/svg" xmlns:xlink="http://www.w3.org/1999/xlink" x="0px" y="0px"
	 width="72px" height="94px" viewBox="0 0 72 94" style="enable-background:new 0 0 72 94;" xml:space="preserve">
<style type="text/css">
	.st0{fill:#FF4825;}
	.st1{fill:#2E2A25;}
</style>
<path id="XMLID_2_" class="st0" d="M40,11.8L40,11.8v16.5c9.2,4,15.7,13.2,15.7,23.9c0,14.4-11.7,26.1-26.1,26.1
	c-7.2,0-13.7-2.9-18.5-7.6L0,81.7c7.6,7.6,18,12.2,29.5,12.2c23.1,0,41.8-18.7,41.8-41.8C71.3,32.8,58,16.4,40,11.8z"/>
<g id="XMLID_61_">
	<path id="XMLID_1_" class="st1" d="M34.8,32V10.4L24.4,0v41.8h5.2c5.8,0,10.4,4.7,10.4,10.4c0,5.8-4.7,10.4-10.4,10.4
		c-2.9,0-5.5-1.2-7.4-3.1L14.8,67c3.8,3.8,9,6.1,14.8,6.1c11.5,0,20.9-9.4,20.9-20.9C50.5,42.5,43.8,34.3,34.8,32z"/>
</g>
</svg>
