<?xml version="1.0" encoding="utf-8"?>
<!-- Generator: Adobe Illustrator 24.0.0, SVG Export Plug-In . SVG Version: 6.00 Build 0)  -->
<svg version="1.1" id="Calque_1" xmlns="http://www.w3.org/2000/svg" xmlns:xlink="http://www.w3.org/1999/xlink" x="0px" y="0px"
   viewBox="0 0 595.3 141.7" style="enable-background:new 0 0 595.3 141.7;" xml:space="preserve">
<style type="text/css">
  .st0{fill:#1D1D1B;}
  .st1{fill:#FF4713;}
</style>
<g id="Calque_2_1_">
  <g>
    <path class="st0" d="M166.2,96.7c-1.7-3.4-2.5-7.5-2.5-12.2c0-9.2,3.5-16.4,9.4-20.2c3-1.8,6.3-2.8,10-2.8c4.9,0,9.2,2.4,12,5.4
      l-2.8,3.3c-2.6-2.9-5.6-4.3-9.1-4.3c-5.7,0-10.2,3.1-12.5,8.6c-1.2,2.8-1.8,6.1-1.8,9.8c0,7.5,2.4,13.3,6.7,16.3
      c2.1,1.5,4.6,2.3,7.5,2.3c4.1,0,7.3-1.7,10.5-5.1l2.8,3.1c-3.6,4.2-7.9,6.4-13.5,6.4C175.5,107.4,169.4,103.6,166.2,96.7z"/>
    <path class="st0" d="M203.7,99.4c-1.4-2.6-2.1-5.6-2.1-9.1c0-7,3-12.4,7.5-15.1c2.3-1.3,4.8-2,7.5-2c5.4,0,10.2,2.8,13,8
      c1.3,2.6,2,5.7,2,9.1c0,7-3,12.3-7.5,15c-2.3,1.4-4.8,2.1-7.5,2.1C211.2,107.4,206.4,104.6,203.7,99.4z M225.3,97.1
      c0.9-2,1.3-4.2,1.3-6.8c0-5.1-1.8-9.2-4.8-11.4c-1.5-1.1-3.2-1.6-5.2-1.6c-3.8,0-7,2.3-8.6,6.3c-0.9,2-1.3,4.2-1.3,6.8
      c0,7.8,4,13,9.9,13C220.5,103.3,223.6,101.1,225.3,97.1z"/>
    <path class="st0" d="M240.5,100.6v-42h4.8V101c0,1.5,0.7,2.3,1.5,2.3c0.3,0,0.7-0.1,1.2-0.1l0.7,3.8c-0.9,0.3-1.8,0.5-3,0.5
      C242.1,107.4,240.5,105.1,240.5,100.6z"/>
    <path class="st0" d="M257.3,100.6v-42h4.8V101c0,1.5,0.7,2.3,1.5,2.3c0.3,0,0.7-0.1,1.2-0.1l0.7,3.8c-0.9,0.3-1.8,0.5-3,0.5
      C258.9,107.4,257.3,105.1,257.3,100.6z"/>
    <path class="st0" d="M298.8,91.4h-22.5c0.5,7.6,5.2,12,11.4,12c2.9,0,5.7-0.9,8.3-2.6l1.8,3.2c-3.2,2.1-6.5,3.4-10.7,3.4
      c-5.7,0-10.7-2.8-13.4-8c-1.4-2.6-2.1-5.7-2.1-9.1c0-6.8,3-12.2,7.5-15.1c2.2-1.4,4.6-2.1,7.1-2.1c8.1,0,12.8,5.8,12.8,15.3
      C299,89.6,299,90.6,298.8,91.4z M294.7,87.8c0-6.9-3.1-10.7-8.4-10.7c-4.8,0-9.1,3.8-9.8,10.7H294.7z"/>
    <path class="st0" d="M306.7,99.5c-1.3-2.6-2-5.6-2-9.1c0-7,3-12.4,7.8-15.1c2.4-1.3,5-2,7.7-2c3.6,0,6.7,1.3,9.5,3.9l-2.6,3.2
      c-2.2-2-4.2-3-6.7-3c-4,0-7.4,2.3-9.2,6.3c-0.9,2-1.4,4.2-1.4,6.8c0,7.8,4.2,13,10.5,13c2.8,0,5.4-1.1,7.9-3.4l2.2,3.3
      c-3,2.6-6.7,4.2-10.5,4.2C314.2,107.4,309.3,104.6,306.7,99.5z"/>
    <path class="st0" d="M338,96.8V78h-4.9v-3.7l5.1-0.3l0.6-9.2h4.1V74h8.9v4h-8.9v18.9c0,4.3,1.4,6.5,5.2,6.5c0.9,0,2.2-0.3,3.8-0.9
      l1,3.7c-2.4,0.8-4.4,1.2-5.9,1.2C340.5,107.4,338,103.6,338,96.8z"/>
    <path class="st0" d="M358.5,63.5c0-2,1.4-3.3,3.4-3.3s3.4,1.3,3.4,3.3c0,2.1-1.4,3.4-3.4,3.4C359.9,67,358.5,65.6,358.5,63.5z
       M359.4,74h4.8v32.6h-4.8V74z"/>
    <path class="st0" d="M381.3,68.4V74h7.1v4h-7.1v28.6h-4.9V78H372v-3.7l4.4-0.3v-5.7c0-6.7,3.1-10.6,9.2-10.6
      c1.7,0,3.5,0.3,5.2,1.1l-1.1,3.8c-1.3-0.5-2.5-0.8-3.8-0.8C382.8,61.8,381.3,64,381.3,68.4z"/>
  </g>
  <g>
    <path class="st0" d="M413.5,58.5h16.1c11.7,0,17.5,4,17.5,11.9c0,4.5-2.6,8.9-6.5,10.4v0.3c5.4,1.4,8.9,5.1,8.9,11.3
      c0,9.3-7.5,14.1-18.6,14.1h-17.4V58.5z M429,77.9c5.6,0,8.2-2.2,8.2-6c0-3.9-2.6-5.6-8.2-5.6h-5.5v11.6H429z M430.1,98.7
      c6.4,0,9.6-2.4,9.6-7c0-4.4-3.2-6.3-9.6-6.3h-6.5v13.3H430.1z"/>
    <path class="st0" d="M455.3,96.5c0-7.7,6.3-11.9,20.8-13.4c-0.1-3.9-2.1-5.9-6-5.9c-3,0-6,1.3-9.8,3.4l-3.6-6.6
      c5.2-3.2,10.2-4.8,15.3-4.8c9.3,0,14.2,5.4,14.2,16.3v21H478l-0.7-3.8H477c-3.6,3.2-7.2,4.7-10.8,4.7
      C459.7,107.4,455.3,102.8,455.3,96.5z M476.1,96.2v-7c-4,0.5-6.8,1.3-8.5,2.4S465,94,465,95.7c0,2.6,1.6,3.9,4.5,3.9
      C471.9,99.6,473.7,98.5,476.1,96.2z"/>
    <path class="st0" d="M495.7,70.1h8.2l0.7,4.8h0.3c3.5-3.6,6.7-5.7,11-5.7c5.1,0,8.2,2.1,10.1,6.3c3.8-3.9,7.1-6.3,11.5-6.3
      c7.7,0,11.3,5.3,11.3,14.6v22.7h-10V85.1c0-5.3-1.4-7.3-4.9-7.3c-2,0-4.2,1.3-6.7,3.8v24.9h-10V85.1c0-5.3-1.4-7.3-4.9-7.3
      c-2,0-4.2,1.3-6.7,3.8v24.9h-10V70.1H495.7z"/>
  </g>
  <path class="st1" d="M78.6,25.6L78.6,25.6V48c12.5,5.5,21.3,18,21.3,32.5c0,19.6-15.9,35.4-35.4,35.4c-9.8,0-18.6-4-25.1-10.4
    l-15,15c10.3,10.3,24.4,16.6,40.1,16.6c31.3,0,56.7-25.4,56.7-56.7C121.2,54.1,103.1,31.9,78.6,25.6z"/>
  <g>
    <path class="st0" d="M71.6,53V23.8L57.4,9.6v56.7h7.1c7.8,0,14.2,6.3,14.2,14.2c0,7.8-6.3,14.2-14.2,14.2c-3.9,0-7.5-1.6-10-4.2
      l-10,10c5.1,5.1,12.2,8.3,20,8.3c15.7,0,28.3-12.7,28.3-28.3C92.8,67.3,83.8,56.2,71.6,53z"/>
  </g>
</g>
</svg>
