<?xml version="1.0" encoding="utf-8"?>
<!-- Generator: Adobe Illustrator 19.0.0, SVG Export Plug-In . SVG Version: 6.00 Build 0)  -->
<svg version="1.1" id="Layer_1" xmlns="http://www.w3.org/2000/svg" xmlns:xlink="http://www.w3.org/1999/xlink" x="0px" y="0px"
	 width="150px" height="135.3px" viewBox="0 8.7 150 135.3" style="enable-background:new 0 8.7 150 135.3;" xml:space="preserve">
<style type="text/css">
	.st0{fill:#2E2A25;}
	.st1{fill:#FF4825;}
</style>
<g id="XMLID_64_">
	<path id="XMLID_93_" class="st0" d="M1,139.7c-0.6-1.4-1-2.9-1-4.8c0-3.6,1.4-6.4,3.6-7.9c1.1-0.7,2.4-1.1,3.9-1.1
		c1.9,0,3.5,0.9,4.6,2.1l-0.8,0.9c-1-1.2-2.3-1.8-3.8-1.8c-2.4,0-4.3,1.3-5.3,3.6c-0.5,1.2-0.7,2.5-0.7,4.1c0,3.2,1,5.6,2.8,6.9
		c0.9,0.6,1.9,1,3.2,1c1.7,0,3.1-0.7,4.3-2.1l0.8,0.9c-1.4,1.6-3,2.5-5.2,2.5C4.5,144,2.2,142.5,1,139.7z"/>
	<path id="XMLID_90_" class="st0" d="M15.7,140.9c-0.5-1-0.8-2.2-0.8-3.6c0-2.8,1.1-4.9,2.9-5.9c0.9-0.5,1.8-0.8,2.9-0.8
		c2.1,0,4,1.1,5,3.1c0.5,1,0.8,2.2,0.8,3.6c0,2.7-1.1,4.8-2.9,5.9c-0.9,0.6-1.9,0.8-2.9,0.8C18.6,144,16.8,142.9,15.7,140.9z
		 M24.5,140.2c0.4-0.8,0.6-1.8,0.6-2.9c0-2.1-0.8-3.9-2.1-4.9c-0.7-0.5-1.4-0.7-2.3-0.7c-1.7,0-3,1-3.8,2.7
		c-0.4,0.8-0.6,1.8-0.6,2.9c0,2.1,0.8,3.9,2.1,4.8c0.7,0.5,1.4,0.7,2.2,0.7C22.4,142.8,23.7,141.9,24.5,140.2z"/>
	<path id="XMLID_88_" class="st0" d="M30.2,141.8v-17.1h1.4V142c0,0.6,0.2,0.8,0.6,0.8c0.1,0,0.3,0,0.5-0.1l0.2,1.1
		c-0.1,0-0.2,0.1-0.3,0.1c-0.2,0-0.4,0.1-0.6,0.1C30.7,144,30.2,143.3,30.2,141.8z"/>
	<path id="XMLID_86_" class="st0" d="M36.5,141.8v-17.1h1.4V142c0,0.6,0.2,0.8,0.6,0.8c0.1,0,0.3,0,0.5-0.1l0.2,1.1
		c-0.1,0-0.2,0.1-0.3,0.1c-0.2,0-0.4,0.1-0.6,0.1C37.1,144,36.5,143.3,36.5,141.8z"/>
	<path id="XMLID_83_" class="st0" d="M52.3,137.6h-9.1c0,2.2,1,3.8,2.4,4.7c0.7,0.4,1.5,0.6,2.4,0.6c1.2,0,2.3-0.4,3.4-1.1l0.6,1
		c-1.2,0.8-2.4,1.3-4.1,1.3c-2.2,0-4.1-1.1-5.1-3.1c-0.5-1-0.8-2.2-0.8-3.6c0-2.7,1.1-4.8,2.9-5.9c0.8-0.6,1.7-0.8,2.7-0.8
		c3.1,0,4.9,2.2,4.9,5.9C52.4,136.9,52.4,137.2,52.3,137.6z M51.1,136.5c0-3.1-1.4-4.7-3.7-4.7c-1.3,0-2.6,0.7-3.4,2.1
		c-0.4,0.7-0.7,1.6-0.8,2.6H51.1z"/>
	<path id="XMLID_81_" class="st0" d="M55.5,140.9c-0.5-1-0.8-2.2-0.8-3.6c0-2.8,1.2-4.9,3-5.9c0.9-0.5,1.9-0.8,2.9-0.8
		c1.6,0,2.7,0.6,3.7,1.5l-0.8,1c-0.9-0.8-1.8-1.3-2.9-1.3c-1.7,0-3.1,1-3.9,2.7c-0.4,0.8-0.6,1.8-0.6,2.9c0,2.1,0.8,3.9,2.1,4.8
		c0.7,0.5,1.5,0.7,2.3,0.7c1.2,0,2.3-0.5,3.3-1.4l0.7,1c-1.3,1.1-2.7,1.7-4.1,1.7C58.3,144,56.5,143,55.5,140.9z"/>
	<path id="XMLID_79_" class="st0" d="M67.7,140.1v-8h-2V131l2-0.1l0.2-3.7H69v3.7h3.7v1.2H69v8.1c0,1.8,0.6,2.7,2.1,2.7
		c0.4,0,1.1-0.2,1.6-0.4l0.3,1.1c-0.9,0.3-1.6,0.5-2.1,0.5C68.6,144,67.7,142.6,67.7,140.1z"/>
	<path id="XMLID_76_" class="st0" d="M75.5,126.8c0-0.6,0.5-1.1,1.1-1.1s1.1,0.5,1.1,1.1c0,0.7-0.5,1.2-1.1,1.2
		C75.9,128,75.5,127.5,75.5,126.8z M75.8,131h1.4v12.7h-1.4V131z"/>
	<path id="XMLID_74_" class="st0" d="M83.6,128.3v2.6h2.9v1.2h-2.9v11.6h-1.4v-11.6h-1.8V131l1.8-0.1v-2.7c0-2.5,1.1-3.9,3.3-3.9
		c0.7,0,1.3,0.1,1.9,0.4l-0.3,1.1c-0.5-0.2-1-0.3-1.5-0.3C84.2,125.5,83.6,126.5,83.6,128.3z"/>
	<path id="XMLID_70_" class="st0" d="M93.9,143.2c0-0.2,0-0.4,0.1-0.5c1.1-0.1,1.8-0.2,1.9-0.5s0.2-0.6,0.2-1s0-1,0-1.7v-10.7
		c0-0.5,0-0.9,0-1.2c0-0.3,0-0.5-0.1-0.8c0-0.3-0.1-0.5-0.2-0.7c0,0,0-0.1-0.1-0.1c0,0-0.1-0.1-0.2-0.1s-0.1,0-0.2-0.1
		c-0.1,0-0.2,0-0.3-0.1c-0.1,0-0.2,0-0.3,0c-0.1,0-0.2,0-0.3,0c-0.1,0-0.2,0-0.2,0c-0.1,0-0.1,0-0.2,0s-0.1,0-0.2,0
		c-0.1-0.1-0.1-0.3-0.1-0.5l0,0c0-0.3,0-0.4,0.1-0.5c0.9,0.1,2.3,0.1,4.1,0.1c0.4,0,1.1,0,2.1,0s1.8,0,2.4,0c0.5,0,1.1,0.1,1.6,0.1
		c0.5,0.1,1,0.3,1.5,0.5s0.9,0.5,1.3,0.9c0.4,0.3,0.7,0.8,0.9,1.3c0.2,0.5,0.3,1.1,0.3,1.8c0,0.4-0.1,0.9-0.2,1.3
		c-0.2,0.4-0.4,0.8-0.6,1c-0.2,0.3-0.5,0.5-0.8,0.8c-0.3,0.2-0.5,0.4-0.8,0.5c-0.2,0.1-0.4,0.2-0.6,0.3c-0.1,0-0.2,0.1-0.2,0.1l0,0
		c0.3,0,0.7,0.1,1.1,0.3c0.4,0.1,0.8,0.4,1.3,0.6c0.4,0.3,0.8,0.6,1.2,1c0.4,0.4,0.7,0.8,0.9,1.3c0.2,0.5,0.3,1.1,0.3,1.6
		c0,0.9-0.3,1.8-0.8,2.6c-0.6,0.8-1.3,1.5-2.2,2.1c-0.4,0.2-0.9,0.4-1.4,0.6c-0.5,0.1-1,0.2-1.5,0.3c-0.5,0-1,0.1-1.6,0.1
		c-0.3,0-0.6,0-0.8,0c-0.3,0-0.5,0-0.8,0H94C93.9,143.7,93.9,143.5,93.9,143.2z M100.1,132.9h1.5c0.8,0,1.4-0.3,1.8-0.9
		c0.5-0.6,0.7-1.4,0.7-2.5c0-2.6-0.8-3.8-2.4-3.8c-0.2,0-0.4,0-0.5,0s-0.3,0-0.4,0s-0.3,0.1-0.3,0.1c-0.1,0-0.2,0.1-0.2,0.2
		c-0.1,0.2-0.1,0.8-0.1,1.8L100.1,132.9L100.1,132.9z M100.1,140.5c0,0.9,0.1,1.4,0.2,1.7c0.2,0.2,0.8,0.3,1.8,0.3
		c0.3,0,0.6,0,0.8-0.1c0.3-0.1,0.5-0.2,0.8-0.4s0.5-0.4,0.7-0.7s0.4-0.7,0.5-1.1c0.1-0.5,0.2-1,0.2-1.5s0-0.9-0.1-1.3
		c-0.1-0.4-0.2-0.8-0.4-1.2c-0.2-0.4-0.4-0.7-0.7-1c-0.3-0.3-0.6-0.5-1-0.7s-0.9-0.3-1.4-0.3H100L100.1,140.5L100.1,140.5z"/>
	<path id="XMLID_67_" class="st0" d="M111.7,140.4c0-0.5,0.2-1,0.5-1.5c0.3-0.4,0.7-0.7,1.1-0.9c0.3-0.1,0.8-0.3,1.5-0.5
		c0.7-0.3,1.4-0.5,2.2-0.8c0.8-0.3,1.4-0.5,1.7-0.7v-0.6v-0.7c0-0.8-0.2-1.4-0.5-2s-0.7-0.9-1.2-0.9c-0.1,0-0.2,0-0.3,0
		c-0.1,0-0.2,0.1-0.3,0.1c-0.1,0-0.2,0.1-0.2,0.1c-0.1,0.1-0.1,0.1-0.2,0.2c-0.1,0.1-0.1,0.2-0.2,0.2c0,0.1-0.1,0.2-0.1,0.3
		s-0.1,0.2-0.1,0.3c0,0.1-0.1,0.2-0.1,0.4c0,0.1-0.1,0.3-0.1,0.4c0,0.1-0.1,0.2-0.1,0.4c-0.1,0.4-0.2,0.7-0.5,0.9
		c-0.3,0.2-0.6,0.4-1.1,0.4c-0.4,0-0.8-0.1-1.1-0.4c-0.3-0.3-0.5-0.6-0.5-1c0-0.3,0.1-0.7,0.4-1.2c0.1-0.1,0.4-0.3,0.7-0.5
		c0.3-0.2,0.8-0.5,1.3-0.7c0.5-0.3,1.1-0.5,1.8-0.7c0.7-0.2,1.3-0.3,1.9-0.3c0.8,0,1.5,0.2,2.2,0.6s1.2,0.9,1.6,1.6
		c0.4,0.7,0.6,1.4,0.6,2.3v5.4c0,0.3,0,0.5,0.1,0.7s0.1,0.3,0.2,0.4c0.1,0.1,0.2,0.1,0.3,0.1c0.1,0,0.2,0,0.3,0
		c0.1,0,0.2-0.1,0.2-0.1c0.1,0,0.1-0.1,0.2-0.1l0.1-0.1c0.1,0,0.1,0.1,0.1,0.2c0,0.1,0.1,0.2,0.1,0.3c0,0.2,0,0.3-0.1,0.4
		c-0.2,0.2-0.4,0.4-0.7,0.6c-0.3,0.2-0.6,0.4-1.1,0.6c-0.5,0.2-0.9,0.3-1.2,0.3c-0.5,0-0.9-0.1-1.3-0.4c-0.4-0.3-0.7-0.6-0.9-1
		c-0.2,0.2-0.7,0.5-1.5,0.9s-1.4,0.6-1.8,0.6c-0.5,0-1.1-0.1-1.6-0.3s-0.9-0.5-1.2-0.8c-0.3-0.3-0.6-0.7-0.8-1.1
		C111.8,141.3,111.7,140.8,111.7,140.4z M115.8,140.1c0,0.3,0.1,0.6,0.2,0.8s0.3,0.4,0.4,0.6c0.2,0.1,0.4,0.2,0.6,0.3
		s0.4,0.1,0.6,0.1c0.3,0,0.6-0.1,0.8-0.2c0.2-0.1,0.3-0.3,0.3-0.4v-4.1c-0.1,0-0.3,0.2-0.8,0.4s-0.9,0.4-1.1,0.6
		c-0.4,0.2-0.6,0.5-0.8,0.9C115.8,139.4,115.8,139.7,115.8,140.1C115.8,140,115.8,140.1,115.8,140.1z"/>
	<path id="XMLID_65_" class="st0" d="M125.3,143.3c0-0.2,0-0.4,0.1-0.5c1.1-0.1,1.8-0.3,1.9-0.5c0.1-0.3,0.2-0.6,0.2-1s0-1,0-1.7
		v-3.3c0-0.2,0-0.4,0-0.7c0-0.3,0-0.6-0.1-1c0-0.4-0.1-0.6-0.2-0.8s-0.4-0.3-0.8-0.4c-0.4-0.1-0.8-0.1-1-0.1c-0.1,0-0.1-0.2-0.1-0.5
		s0-0.5,0.1-0.5c1-0.1,2-0.3,3.1-0.6c1.1-0.3,1.9-0.6,2.6-0.9c0.1,0,0.2,0.1,0.3,0.2s0.2,0.2,0.2,0.3c0,0.1,0,0.2-0.1,0.4
		c0,0.2-0.1,0.4-0.1,0.6s-0.1,0.4-0.1,0.5c0,0.2,0,0.2,0,0.2c0,0.1,0,0.2,0,0.2s0.1-0.1,0.2-0.2c0.4-0.6,1.1-1.1,1.9-1.5
		c0.8-0.4,1.5-0.7,2.2-0.7c0.9,0,1.7,0.2,2.2,0.6c0.5,0.4,1,1,1.3,1.9c0.7-0.7,1.5-1.2,2.4-1.7s1.7-0.8,2.4-0.8c0.6,0,1,0.1,1.4,0.2
		s0.8,0.3,1,0.6c0.3,0.3,0.5,0.6,0.7,0.9c0.2,0.4,0.3,0.8,0.4,1.3c0.1,0.5,0.2,1.1,0.2,1.7s0.1,1.3,0.1,2.1v1.9c0,0.3,0,0.5,0,0.6
		s0,0.3,0,0.5s0,0.4,0,0.5s0,0.3,0,0.4c0,0.1,0,0.3,0.1,0.4c0,0.1,0.1,0.2,0.1,0.3c0.1,0.3,0.7,0.4,1.9,0.5c0.1,0.1,0.1,0.3,0.1,0.5
		l0,0c0,0.3,0,0.4-0.1,0.5c-1.3-0.1-2.6-0.2-4-0.2c-1.1,0-2.3,0.1-3.6,0.2c-0.1-0.1-0.1-0.3-0.1-0.5c0-0.3,0-0.4,0.1-0.5
		c0.9-0.1,1.4-0.2,1.5-0.5s0.2-0.6,0.2-1s0-1,0-1.7v-2.3c0-0.6,0-1.1-0.1-1.5c-0.1-0.5-0.2-0.9-0.3-1.3s-0.3-0.7-0.6-0.9
		c-0.3-0.2-0.6-0.3-0.9-0.3c-0.4,0-0.8,0.1-1.2,0.3c-0.4,0.2-0.8,0.4-1.1,0.7c-0.3,0.3-0.4,0.5-0.4,0.7v0.2c0.1,1.1,0.1,2,0.1,2.7
		v1.9c0,0.3,0,0.6,0,0.7c0,0.2,0,0.4,0,0.6c0,0.2,0,0.4,0,0.6c0,0.1,0,0.3,0.1,0.4c0,0.2,0.1,0.3,0.1,0.4c0.1,0.3,0.7,0.4,1.8,0.5
		c0.1,0.1,0.1,0.3,0.1,0.5c0,0.3,0,0.4-0.1,0.5c-1.3-0.1-2.6-0.2-3.9-0.2c-1.1,0-2.4,0.1-3.7,0.2c-0.1-0.1-0.1-0.3-0.1-0.5
		c0-0.3,0-0.4,0.1-0.5c0.9-0.1,1.5-0.2,1.6-0.5s0.2-0.6,0.2-1s0-1,0-1.7v-2.3c0-0.6,0-1.1-0.1-1.5c-0.1-0.5-0.2-0.9-0.3-1.3
		s-0.3-0.7-0.6-0.9c-0.3-0.2-0.6-0.3-0.9-0.3c-0.4,0-0.8,0.1-1.2,0.3c-0.4,0.2-0.7,0.4-1,0.7c-0.3,0.3-0.4,0.5-0.4,0.7v4.8
		c0,0.5,0,0.8,0,1.1s0,0.5,0.1,0.9c0,0.3,0.1,0.6,0.2,0.8c0.1,0.3,0.7,0.4,1.7,0.5c0.1,0.1,0.1,0.3,0.1,0.5c0,0.3,0,0.4-0.1,0.5
		c-1.3-0.1-2.6-0.2-3.8-0.2c-1.3,0-2.7,0.1-4,0.2C125.3,143.7,125.3,143.6,125.3,143.3z"/>
</g>
<path id="XMLID_2_" class="st1" d="M79.3,20.5L79.3,20.5V37C88.5,41,95,50.2,95,60.9C95,75.3,83.3,87,68.9,87
	c-7.2,0-13.7-2.9-18.5-7.6l-11.1,11c7.6,7.6,18,12.2,29.5,12.2c23.1,0,41.8-18.7,41.8-41.8C110.6,41.5,97.3,25.1,79.3,20.5z"/>
<g id="XMLID_61_">
	<path id="XMLID_1_" class="st0" d="M74.1,40.7V19.1L63.7,8.7v41.8h5.2c5.8,0,10.4,4.7,10.4,10.4c0,5.8-4.7,10.4-10.4,10.4
		c-2.9,0-5.5-1.2-7.4-3.1l-7.4,7.5c3.8,3.8,9,6.1,14.8,6.1c11.5,0,20.9-9.4,20.9-20.9C89.8,51.2,83.1,43,74.1,40.7z"/>
</g>
</svg>
