<?xml version="1.0" encoding="iso-8859-1"?>
<!-- Generator: Adobe Illustrator 19.0.0, SVG Export Plug-In . SVG Version: 6.00 Build 0)  -->
<svg version="1.1" id="Layer_1" xmlns="http://www.w3.org/2000/svg" xmlns:xlink="http://www.w3.org/1999/xlink" x="0px" y="0px"
	 width="550px" height="128px" viewBox="0 0 550 128" style="enable-background:new 0 0 550 128;" xml:space="preserve">
<path id="XMLID_26_" style="fill:#1D1D1B;" d="M142.382,86.208c-1.735-3.687-2.6-8.017-2.6-13.003c0-9.9,3.682-17.565,9.826-21.603
	c3.104-1.952,6.648-2.961,10.691-2.961c5.204,0,9.613,2.456,12.499,5.704l-2.239,2.53c-2.817-3.252-6.287-4.839-10.26-4.839
	c-6.643,0-11.778,3.534-14.452,9.895c-1.374,3.183-2.022,6.939-2.022,11.2c0,8.6,2.748,15.247,7.661,18.712
	c2.382,1.735,5.274,2.604,8.6,2.604c4.695,0,8.378-1.809,11.778-5.782l2.234,2.456c-3.826,4.413-8.234,6.791-14.234,6.791
	C152.064,97.912,145.777,93.726,142.382,86.208"/>
<path id="XMLID_23_" style="fill:#1D1D1B;" d="M182.626,89.39c-1.448-2.748-2.17-6-2.17-9.682c0-7.517,3.109-13.221,7.873-16.117
	c2.387-1.439,4.987-2.165,7.809-2.165c5.704,0,10.765,2.96,13.656,8.456c1.374,2.813,2.091,6.065,2.091,9.826
	c0,7.439-3.035,13.078-7.873,15.964c-2.382,1.522-5.061,2.239-7.873,2.239C190.425,97.911,185.438,94.881,182.626,89.39
	 M206.468,87.507c1.008-2.239,1.513-4.843,1.513-7.799c0-5.852-2.091-10.621-5.704-13.221c-1.809-1.231-3.904-1.878-6.139-1.878
	c-4.557,0-8.239,2.674-10.26,7.221c-1.087,2.313-1.596,4.913-1.596,7.878c0,5.852,2.239,10.547,5.782,13.078
	c1.809,1.226,3.83,1.878,6.074,1.878C200.685,94.664,204.446,92.064,206.468,87.507"/>
<path id="XMLID_22_" style="fill:#1D1D1B;" d="M221.995,91.917v-46.75h3.756v47.185c0,1.517,0.652,2.313,1.522,2.313
	c0.361,0,0.791-0.074,1.3-0.148l0.578,3.035c-0.143,0.074-0.435,0.148-0.87,0.217c-0.504,0.074-1.008,0.143-1.661,0.143
	C223.517,97.912,221.995,95.895,221.995,91.917"/>
<path id="XMLID_21_" style="fill:#1D1D1B;" d="M239.333,91.917v-46.75h3.756v47.185c0,1.517,0.652,2.313,1.527,2.313
	c0.356,0,0.786-0.074,1.295-0.148l0.578,3.035c-0.143,0.074-0.435,0.148-0.87,0.217c-0.504,0.074-1.004,0.143-1.661,0.143
	C240.855,97.912,239.333,95.895,239.333,91.917"/>
<path id="XMLID_18_" style="fill:#1D1D1B;" d="M282.322,80.282h-24.855c0.079,6,2.674,10.482,6.504,12.791
	c1.952,1.156,4.048,1.735,6.43,1.735c3.252,0,6.356-1.013,9.178-3.035l1.517,2.674c-3.395,2.234-6.504,3.465-11.051,3.465
	c-6,0-11.204-3.03-14.021-8.521c-1.443-2.748-2.165-6-2.165-9.682c0-7.295,3.109-13.082,7.799-16.038
	c2.313-1.517,4.774-2.248,7.443-2.248c8.382,0,13.438,6.004,13.438,16.117C282.539,78.478,282.47,79.417,282.322,80.282
	 M279.074,77.321c0-8.378-3.687-12.786-9.974-12.786c-3.543,0-7.082,1.948-9.395,5.778c-1.152,1.952-1.874,4.26-2.096,7.008H279.074
	z"/>
<path id="XMLID_17_" style="fill:#1D1D1B;" d="M290.987,89.46c-1.369-2.748-2.091-5.995-2.091-9.751
	c0-7.517,3.178-13.226,8.091-16.117c2.382-1.439,5.061-2.17,7.947-2.17c4.339,0,7.369,1.591,10.191,4.191l-2.096,2.604
	c-2.53-2.308-4.917-3.608-8.026-3.608c-4.621,0-8.452,2.674-10.621,7.295c-1.082,2.313-1.656,4.913-1.656,7.804
	c0,5.852,2.091,10.547,5.852,13.078c1.804,1.221,3.974,1.878,6.356,1.878c3.252,0,6.287-1.304,9.104-3.899l1.883,2.595
	c-3.469,3.039-7.23,4.552-11.2,4.552C298.648,97.912,293.739,94.951,290.987,89.46"/>
<path id="XMLID_16_" style="fill:#1D1D1B;" d="M324.299,87.22V65.474h-5.348v-2.891l5.486-0.291l0.435-10.043h3.109v10.043h9.969
	v3.183h-9.969v21.964c0,4.843,1.517,7.3,5.852,7.3c1.156,0,3.035-0.509,4.26-1.087l0.944,2.965c-2.382,0.87-4.339,1.295-5.852,1.295
	C326.751,97.911,324.299,94.085,324.299,87.22"/>
<path id="XMLID_13_" style="fill:#1D1D1B;" d="M345.32,50.955c0-1.74,1.3-3.039,2.961-3.039s2.965,1.3,2.965,3.039
	c0,1.799-1.305,3.173-2.965,3.173S345.32,52.754,345.32,50.955 M346.334,62.293h3.756v34.755h-3.756V62.293z"/>
<path id="XMLID_12_" style="fill:#1D1D1B;" d="M367.424,55.139v7.152h7.878v3.183h-7.878v31.577h-3.756V65.474h-4.765v-2.891
	l4.765-0.291v-7.369c0-6.865,3.109-10.621,8.891-10.621c1.809,0,3.539,0.365,5.2,1.156l-0.939,2.961
	c-1.3-0.648-2.674-0.939-4.048-0.939C369.233,47.479,367.424,50.009,367.424,55.139"/>
<path id="XMLID_8_" style="fill:#1D1D1B;" d="M395.494,95.704c0-0.648,0.093-1.12,0.282-1.406c3.127-0.241,4.806-0.685,5.042-1.341
	c0.305-0.726,0.486-1.619,0.551-2.678c0.06-1.055,0.083-2.642,0.083-4.751V56.499c0-1.425-0.005-2.493-0.014-3.183
	c-0.009-0.694-0.065-1.443-0.162-2.253c-0.092-0.814-0.241-1.476-0.458-1.994c-0.023-0.097-0.092-0.194-0.208-0.296
	c-0.12-0.106-0.278-0.194-0.463-0.268c-0.185-0.069-0.375-0.139-0.564-0.194c-0.185-0.06-0.416-0.111-0.685-0.157
	c-0.273-0.046-0.509-0.088-0.708-0.125c-0.204-0.032-0.444-0.065-0.74-0.088c-0.291-0.018-0.518-0.037-0.671-0.051
	c-0.153-0.014-0.342-0.028-0.578-0.037c-0.236-0.014-0.379-0.028-0.426-0.051c-0.19-0.259-0.282-0.722-0.282-1.379
	c0.019-0.046,0.032-0.083,0.032-0.106c0-0.703,0.083-1.17,0.25-1.406c2.373,0.139,6.139,0.208,11.287,0.208
	c1.008,0,2.873-0.037,5.588-0.106c2.715-0.069,4.89-0.102,6.513-0.102c1.466,0,2.91,0.134,4.316,0.402
	c1.416,0.268,2.789,0.722,4.136,1.351c1.342,0.634,2.517,1.416,3.52,2.341c1.004,0.925,1.818,2.105,2.443,3.534
	c0.625,1.439,0.93,3.039,0.93,4.825c0,1.171-0.217,2.313-0.657,3.428c-0.43,1.115-0.958,2.059-1.564,2.836
	c-0.611,0.773-1.305,1.48-2.082,2.124c-0.773,0.647-1.448,1.147-2.035,1.499c-0.592,0.352-1.11,0.62-1.573,0.809
	c-0.319,0.12-0.481,0.25-0.481,0.393l0.102,0.111c0.837,0.093,1.795,0.342,2.868,0.74c1.078,0.403,2.216,0.99,3.405,1.767
	c1.198,0.777,2.29,1.67,3.266,2.665c0.981,1.004,1.786,2.207,2.419,3.622c0.638,1.416,0.953,2.91,0.953,4.487
	c0,2.544-0.763,4.945-2.281,7.198c-1.517,2.248-3.553,4.127-6.092,5.639c-1.119,0.657-2.359,1.184-3.738,1.587
	c-1.379,0.398-2.743,0.662-4.099,0.777c-1.351,0.116-2.789,0.199-4.316,0.25c-0.759,0.023-1.503,0.032-2.248,0.032
	c-0.74,0-1.462-0.009-2.17-0.032h-18.411C395.587,97.032,395.494,96.5,395.494,95.704 M412.532,67.662h4.089
	c2.049,0,3.696-0.8,4.941-2.406c1.249-1.605,1.869-3.853,1.869-6.731c0-6.985-2.183-10.478-6.564-10.478
	c-0.537,0-0.985,0.009-1.351,0.037c-0.37,0.023-0.745,0.06-1.133,0.12s-0.708,0.153-0.953,0.282
	c-0.241,0.13-0.416,0.301-0.509,0.509c-0.259,0.634-0.389,2.244-0.389,4.82V67.662z M412.532,88.386
	c0,2.415,0.213,3.942,0.638,4.571c0.444,0.634,2.105,0.948,4.973,0.948c0.773,0,1.531-0.111,2.271-0.333
	c0.74-0.222,1.49-0.601,2.239-1.143c0.759-0.536,1.416-1.207,1.975-1.998c0.564-0.8,1.022-1.832,1.36-3.099
	c0.342-1.267,0.513-2.674,0.513-4.219c0-1.24-0.097-2.429-0.282-3.553c-0.19-1.124-0.527-2.234-1.027-3.322
	c-0.49-1.096-1.101-2.031-1.832-2.817c-0.726-0.786-1.67-1.415-2.826-1.901c-1.152-0.476-2.452-0.721-3.914-0.721h-4.089V88.386z"/>
<path id="XMLID_5_" style="fill:#1D1D1B;" d="M444.098,88.042c0-1.485,0.426-2.831,1.272-4.029c0.842-1.207,1.809-1.98,2.896-2.336
	c0.87-0.259,2.225-0.731,4.062-1.411c1.837-0.689,3.872-1.452,6.102-2.304c2.239-0.851,3.821-1.448,4.755-1.804v-1.661V72.41
	c0-2.049-0.435-3.886-1.314-5.5c-0.879-1.619-1.98-2.424-3.317-2.424c-0.301,0-0.587,0.032-0.874,0.088
	c-0.282,0.06-0.541,0.152-0.763,0.282c-0.227,0.134-0.439,0.268-0.634,0.407c-0.199,0.143-0.384,0.333-0.56,0.569
	c-0.171,0.236-0.328,0.453-0.463,0.657c-0.139,0.194-0.268,0.458-0.393,0.777c-0.125,0.315-0.236,0.601-0.338,0.861
	c-0.097,0.259-0.199,0.583-0.296,0.976c-0.102,0.389-0.194,0.726-0.287,1.008c-0.088,0.282-0.199,0.634-0.319,1.059
	c-0.213,1.013-0.671,1.846-1.392,2.493c-0.717,0.652-1.721,0.976-3.016,0.976c-1.106,0-2.068-0.37-2.891-1.096
	c-0.828-0.731-1.235-1.628-1.235-2.692c0-0.865,0.384-1.938,1.152-3.224c0.338-0.347,0.962-0.828,1.892-1.42
	c0.921-0.601,2.077-1.254,3.469-1.98c1.388-0.726,2.998-1.356,4.82-1.878c1.823-0.527,3.562-0.791,5.218-0.791
	c2.156,0,4.131,0.509,5.926,1.531c1.786,1.018,3.22,2.447,4.284,4.284c1.069,1.841,1.601,3.918,1.601,6.24v14.822
	c0,0.68,0.083,1.272,0.25,1.767c0.162,0.495,0.384,0.865,0.666,1.11c0.282,0.25,0.601,0.375,0.953,0.375
	c0.259,0,0.523-0.042,0.791-0.125c0.273-0.083,0.486-0.162,0.638-0.231c0.153-0.069,0.333-0.162,0.546-0.282l0.319-0.176
	c0.162,0.074,0.296,0.25,0.402,0.546c0.106,0.296,0.162,0.56,0.162,0.796c0,0.453-0.106,0.846-0.319,1.198
	c-0.541,0.518-1.166,1.041-1.869,1.573c-0.703,0.527-1.675,1.078-2.905,1.656c-1.235,0.578-2.355,0.86-3.358,0.86
	c-1.244,0-2.456-0.402-3.645-1.212c-1.18-0.814-1.957-1.725-2.331-2.738c-0.666,0.588-2.022,1.425-4.066,2.507
	c-2.049,1.083-3.687,1.624-4.917,1.624c-1.499,0-2.924-0.282-4.261-0.846c-1.346-0.564-2.475-1.309-3.391-2.225
	c-0.921-0.92-1.656-1.957-2.197-3.104C444.375,90.35,444.098,89.198,444.098,88.042 M455.182,87.232
	c0.023,0.824,0.185,1.559,0.49,2.207c0.305,0.647,0.699,1.161,1.175,1.54c0.481,0.379,0.99,0.661,1.527,0.865
	c0.546,0.199,1.069,0.301,1.582,0.301c0.893,0,1.656-0.199,2.285-0.601c0.634-0.407,0.944-0.754,0.944-1.059V79.377
	c-0.162,0.093-0.911,0.444-2.244,1.046c-1.332,0.601-2.318,1.096-2.951,1.499c-0.981,0.662-1.707,1.462-2.174,2.41
	c-0.421,0.87-0.634,1.744-0.634,2.614V87.232z"/>
<path id="XMLID_4_" style="fill:#1D1D1B;" d="M480.968,95.812c0-0.638,0.097-1.096,0.287-1.374c3.099-0.236,4.783-0.703,5.038-1.411
	c0.282-0.731,0.463-1.619,0.532-2.683c0.069-1.055,0.106-2.646,0.106-4.76v-9.067c0-0.495-0.014-1.101-0.037-1.814
	c-0.023-0.722-0.093-1.591-0.213-2.614c-0.116-1.022-0.268-1.712-0.453-2.063c-0.264-0.518-1.004-0.916-2.225-1.184
	c-1.221-0.268-2.142-0.403-2.748-0.403c-0.148-0.102-0.213-0.569-0.213-1.402s0.088-1.244,0.278-1.244
	c2.752-0.222,5.57-0.731,8.447-1.527c2.882-0.791,5.204-1.61,6.971-2.461c0.259,0.069,0.546,0.264,0.865,0.587
	c0.315,0.324,0.477,0.555,0.477,0.685c-0.051,0.143-0.125,0.463-0.231,0.953c-0.106,0.495-0.204,1.009-0.282,1.527
	c-0.083,0.518-0.153,0.985-0.213,1.397c-0.056,0.416-0.074,0.634-0.056,0.657c0,0.282,0.028,0.453,0.074,0.504
	c0.093,0,0.282-0.148,0.564-0.43c1.226-1.508,2.947-2.864,5.167-4.071c2.225-1.207,4.182-1.809,5.875-1.809
	c2.563,0,4.594,0.509,6.083,1.536c1.494,1.022,2.711,2.78,3.654,5.269c1.809-1.786,3.983-3.368,6.523-4.742
	c2.54-1.374,4.681-2.063,6.426-2.063c1.499,0,2.812,0.167,3.932,0.495c1.115,0.328,2.068,0.856,2.859,1.587
	c0.786,0.736,1.434,1.577,1.957,2.535c0.513,0.972,0.921,2.183,1.217,3.659c0.296,1.462,0.5,3.012,0.615,4.635
	c0.116,1.619,0.176,3.539,0.176,5.75v5.116v1.656c0,0.352,0.005,0.823,0.018,1.411c0.014,0.592,0.032,1.046,0.055,1.374
	c0.023,0.328,0.056,0.694,0.102,1.092c0.051,0.407,0.111,0.754,0.176,1.064c0.074,0.305,0.162,0.588,0.287,0.846
	c0.259,0.708,1.938,1.175,5.042,1.411c0.19,0.259,0.282,0.713,0.282,1.374v0.106c0,0.708-0.093,1.189-0.282,1.448
	c-3.599-0.379-7.212-0.564-10.829-0.564c-2.988,0-6.282,0.185-9.881,0.564c-0.162-0.259-0.25-0.74-0.259-1.448
	c-0.014-0.703,0.074-1.203,0.259-1.48c2.447-0.189,3.821-0.661,4.131-1.411c0.278-0.731,0.458-1.619,0.532-2.683
	c0.069-1.055,0.102-2.646,0.102-4.76v-6.245c0-1.527-0.088-2.914-0.264-4.163c-0.176-1.244-0.453-2.415-0.828-3.506
	c-0.379-1.096-0.921-1.952-1.638-2.558c-0.722-0.615-1.582-0.92-2.581-0.92s-2.091,0.25-3.28,0.754
	c-1.189,0.509-2.174,1.115-2.965,1.804c-0.786,0.694-1.18,1.3-1.18,1.818v0.458c0.213,2.938,0.319,5.422,0.319,7.443v5.116v1.975
	c0,0.426,0.014,0.962,0.037,1.619c0.023,0.662,0.055,1.175,0.102,1.559c0.051,0.37,0.116,0.772,0.194,1.198
	c0.083,0.421,0.18,0.782,0.305,1.092c0.278,0.708,1.911,1.175,4.899,1.411c0.19,0.278,0.282,0.777,0.264,1.48
	c-0.009,0.708-0.097,1.189-0.264,1.448c-3.599-0.379-7.161-0.564-10.686-0.564c-3.081,0-6.425,0.185-10.02,0.564
	c-0.167-0.259-0.254-0.74-0.268-1.448c-0.009-0.703,0.079-1.203,0.268-1.48c2.535-0.189,3.96-0.661,4.265-1.411
	c0.282-0.731,0.458-1.619,0.532-2.683c0.069-1.055,0.102-2.646,0.102-4.76v-6.245c0-1.527-0.079-2.914-0.245-4.163
	c-0.167-1.244-0.439-2.415-0.828-3.506c-0.384-1.096-0.939-1.952-1.656-2.558c-0.717-0.615-1.573-0.92-2.558-0.92
	c-1.008,0-2.072,0.259-3.178,0.777c-1.101,0.518-2.012,1.129-2.734,1.832c-0.712,0.712-1.073,1.323-1.073,1.837v12.948
	c0,1.295,0.014,2.285,0.037,2.979c0.023,0.694,0.079,1.485,0.176,2.382c0.093,0.893,0.231,1.587,0.426,2.081
	c0.278,0.731,1.781,1.193,4.51,1.411c0.19,0.278,0.278,0.777,0.268,1.48c-0.014,0.708-0.102,1.189-0.268,1.448
	c-3.594-0.379-7.018-0.564-10.265-0.564c-3.622,0-7.23,0.185-10.825,0.564C481.065,97.107,480.968,96.589,480.968,95.812"/>
<path id="XMLID_3_" style="fill:#FF4612;" d="M54.452,16.014l-0.005,0.019V38.52c12.555,5.486,21.33,18.013,21.33,32.594
	c0,19.633-15.918,35.551-35.551,35.551c-9.816,0-18.707-3.983-25.142-10.413L0,111.337C10.297,121.63,24.518,128,40.227,128
	c31.415,0,56.886-25.471,56.886-56.886C97.113,44.603,78.984,22.334,54.452,16.014"/>
<path id="XMLID_2_" d="M47.337,43.563V14.22L33.117,0v56.89h7.11c7.855,0,14.22,6.365,14.22,14.216
	c0,7.859-6.365,14.229-14.22,14.229c-3.927,0-7.48-1.591-10.057-4.168L20.113,91.22c5.153,5.153,12.259,8.336,20.114,8.336
	c15.705,0,28.44-12.74,28.44-28.44C68.667,57.857,59.601,46.718,47.337,43.563"/>
</svg>
