<?xml version="1.0" standalone="no"?>
<!DOCTYPE svg PUBLIC "-//W3C//DTD SVG 20010904//EN"
 "http://www.w3.org/TR/2001/REC-SVG-20010904/DTD/svg10.dtd">
<svg version="1.0" xmlns="http://www.w3.org/2000/svg"
 width="261.000000pt" height="261.000000pt" viewBox="0 0 261.000000 261.000000"
 preserveAspectRatio="xMidYMid meet">
<metadata>
Created by potrace 1.11, written by Peter Selinger 2001-2013
</metadata>
<g transform="translate(0.000000,261.000000) scale(0.100000,-0.100000)"
fill="#000000" stroke="none">
<path d="M1032 1945 c0 -278 3 -505 6 -506 4 -1 41 -2 82 -4 94 -3 147 -17
192 -52 128 -99 133 -285 12 -391 -49 -44 -100 -62 -170 -62 -50 0 -124 27
-157 57 -17 16 -23 12 -107 -72 -51 -51 -86 -93 -83 -101 8 -21 118 -91 180
-114 31 -12 91 -24 132 -27 342 -24 609 279 541 615 -34 164 -162 313 -317
368 l-53 19 0 264 0 264 -124 124 c-69 67 -127 123 -130 123 -2 0 -4 -227 -4
-505z"/>
<path d="M1417 2162 c-2 -4 -3 -94 -3 -201 l1 -194 67 -41 c197 -121 310 -316
311 -541 1 -148 -41 -273 -130 -390 -216 -282 -625 -332 -900 -108 l-56 45
-136 -136 -136 -136 45 -40 c134 -123 315 -210 510 -245 71 -13 286 -14 336
-2 12 3 37 8 55 11 99 16 278 96 379 171 218 160 369 409 411 677 24 158 -1
375 -62 527 -76 190 -219 364 -391 475 -109 71 -291 148 -301 128z"/>
</g>
</svg>
